<?xml version="1.0" encoding="UTF-8" standalone="no"?>
<!DOCTYPE svg PUBLIC "-//W3C//DTD SVG 1.1//EN" "http://www.w3.org/Graphics/SVG/1.1/DTD/svg11.dtd">
<svg width="100%" height="100%" viewBox="0 0 1000 1000" version="1.1" xmlns="http://www.w3.org/2000/svg" xmlns:xlink="http://www.w3.org/1999/xlink" xml:space="preserve" xmlns:serif="http://www.serif.com/" style="fill-rule:evenodd;clip-rule:evenodd;stroke-linejoin:round;stroke-miterlimit:2;">
    <path d="M1000.522,250.261L1000.522,750.783C1000.522,888.906 888.384,1001.044 750.261,1001.044L249.739,1001.044C111.616,1001.044 -0.522,888.906 -0.522,750.783L-0.522,250.261C-0.522,112.138 111.616,0 249.739,0L750.261,0C888.384,0 1000.522,112.138 1000.522,250.261Z" style="fill:rgb(238,241,241);"/>
    <g id="Screenshot_20260630_154027.png" transform="matrix(1.534513,0,0,1.534513,-28.787683,3.95419)">
        <path d="M411.462,356.558C387.61,333.179 344.783,289.767 281.85,227.152C276.491,221.82 279.451,220.792 282.609,217.609C287.468,212.71 336.754,163.024 343.616,156.626C346.07,154.338 346.243,156.864 362.856,173.116C365.324,175.53 370.663,180.753 393.451,203.55C406.548,216.651 411.431,222.726 413.432,221.401C413.692,221.229 507.287,127.604 515.444,119.443C545.3,89.578 546.258,86.97 549.076,89.922C566.006,107.655 613.679,153.384 613.616,155.505C613.557,157.5 429.11,340.045 413.099,357.02C412.553,356.866 412.007,356.712 411.462,356.558Z" style="fill:rgb(66,116,217);"/>
        <g transform="matrix(1.051609,0,0,1.00042,-221.392364,-67.292705)">
            <path d="M411.462,356.558C412.007,356.712 412.553,356.866 413.099,357.02C413.075,357.299 413.013,357.162 412.676,360.498C412.156,365.654 413.338,490.058 412.009,492.222C411.437,493.153 411.377,493.056 350.658,553.655C348.085,556.224 348.251,556.324 345.197,558.191C344.38,549.928 345.398,430.711 344.599,424.437C347.788,421.828 347.729,421.813 381.27,388.269C411.982,357.554 411.237,356.958 411.462,356.558Z" style="fill:rgb(41,54,129);"/>
        </g>
        <path d="M210.664,291.655C212.586,291.523 212.504,291.756 213.832,293.157C215.784,295.215 336.585,415.353 344.599,424.437C345.398,430.711 344.38,549.928 345.197,558.191C342.956,558.365 343.288,557.518 333.327,547.674C323.509,537.971 212.816,428.579 211.42,425.564C210.022,422.547 211.553,308.69 210.664,291.655Z" style="fill:rgb(66,116,217);"/>
        <path d="M411.462,356.558C412.007,356.712 412.553,356.866 413.099,357.02C413.075,357.299 413.013,357.162 412.676,360.498C412.156,365.654 413.338,490.058 412.009,492.222C411.437,493.153 411.377,493.056 350.658,553.655C348.085,556.224 348.251,556.324 345.197,558.191C344.38,549.928 345.398,430.711 344.599,424.437C347.788,421.828 347.729,421.813 381.27,388.269C411.982,357.554 411.237,356.958 411.462,356.558Z" style="fill:rgb(41,54,129);"/>
        <path d="M75.949,353.497C75.944,351.977 75.905,340.5 75.91,334.501C75.946,292.56 74.52,288.758 77.304,290.866C77.839,291.271 77.618,291.355 83.098,296.913C119.118,333.444 140.677,354.14 142.493,356.507C144.388,358.975 142.329,479.092 143.615,490.587C141.932,491.684 141.833,491.023 140.475,489.526C138.202,487.02 80.236,429.308 77.524,426.477C75.91,424.794 75.842,424.449 75.949,353.497Z" style="fill:rgb(66,116,217);"/>
    </g>
</svg>
